<svg xmlns="http://www.w3.org/2000/svg" viewBox="0 0 512 512" role="img" aria-label="따요 출석">
  <rect width="512" height="512" rx="116" fill="#16294B"/>
  <!-- QR 모티프: 세 모서리 파인더 + 앰버 데이터 모듈 (마스크 안전영역 중앙 배치) -->
  <g fill="#FCF6EA">
    <rect x="140" y="140" width="76" height="76" rx="18"/>
    <rect x="296" y="140" width="76" height="76" rx="18"/>
    <rect x="140" y="296" width="76" height="76" rx="18"/>
  </g>
  <g fill="#16294B">
    <rect x="162" y="162" width="32" height="32" rx="8"/>
    <rect x="318" y="162" width="32" height="32" rx="8"/>
    <rect x="162" y="318" width="32" height="32" rx="8"/>
  </g>
  <g fill="#E4952B">
    <rect x="300" y="300" width="30" height="30" rx="7"/>
    <rect x="342" y="300" width="30" height="30" rx="7"/>
    <rect x="300" y="342" width="30" height="30" rx="7"/>
    <rect x="342" y="342" width="30" height="30" rx="7"/>
    <rect x="256" y="238" width="26" height="26" rx="6"/>
    <rect x="238" y="300" width="26" height="26" rx="6"/>
  </g>
</svg>
